Coordinates
version=1
nRows=6
nColumns=46
inDegrees=yes

Units are S.I. units (second, meters, Newtons, ...)
Angles are in degrees.

endheader
time	pelvis_tilt	pelvis_list	pelvis_rotation	pelvis_tx	pelvis_ty	pelvis_tz	bb_angle	bb_tx	bb_ty	bb_tz	hip_flexion_r	hip_adduction_r	hip_rotation_r	knee_angle_r	knee_angle_r_beta	ankle_angle_r	subtalar_angle_r	mtp_angle_r	crank_angle_r	hip_flexion_l	hip_adduction_l	hip_rotation_l	knee_angle_l	knee_angle_l_beta	ankle_angle_l	subtalar_angle_l	mtp_angle_l	crank_angle_l	lumbar_extension	lumbar_bending	lumbar_rotation	arm_flex_r	arm_add_r	arm_rot_r	elbow_flex_r	pro_sup_r	wrist_flex_r	wrist_dev_r	arm_flex_l	arm_add_l	arm_rot_l	elbow_flex_l	pro_sup_l	wrist_flex_l	wrist_dev_l
      0.00500000	    -18.55186923	     -1.28900589	     -0.52910510	      0.07391450	      1.09206069	     -0.25898412	      0.00000000	      0.50000000	      0.00000000	      0.25000000	     80.27157175	     -2.53559519	      0.33958903	     80.71376300	      1.40872092	     12.69474763	     -9.56358510	      0.00000000	      0.00000000	     53.47047084	    -10.00767440	     -0.90698943	     75.61315123	      1.31969845	     15.76462285	      0.53591871	      0.00000000	      0.00000000	    -52.33807077	      0.29855299	      2.43858720	     89.38901208	    -13.72905610	     35.30719050	     39.57690819	     31.88266788	      0.00000000	      0.00000000	     88.61456984	    -13.36271386	     62.30094633	     24.51274360	     32.76724944	      0.00000000	      0.00000000
      0.01000000	    -18.55387055	     -1.27185764	     -0.56816717	      0.07396496	      1.09206328	     -0.25894309	      0.00000000	      0.50000000	      0.00000000	      0.25000000	     80.27069881	     -2.50039731	      0.36414990	     80.70301467	      1.40853332	     12.67071741	     -9.50784443	      0.00000000	      0.00000000	     53.47564922	    -10.04777466	     -0.96813155	     75.63510756	      1.32008166	     15.72976476	      0.61613563	      0.00000000	      0.00000000	    -52.34158426	      0.27931866	      2.29980149	     89.40413576	    -13.46514371	     35.28115676	     39.17766564	     32.46778999	      0.00000000	      0.00000000	     88.43218859	    -13.43513268	     60.71360737	     24.70010150	     33.31514516	      0.00000000	      0.00000000
      0.01500000	    -18.51547081	     -1.27535692	     -0.54974858	      0.07400765	      1.09212023	     -0.25898434	      0.00000000	      0.50000000	      0.00000000	      0.25000000	     80.21927933	     -2.52842938	      0.34397889	     80.69708239	      1.40842978	     12.70034811	     -9.47630158	      0.00000000	      0.00000000	     53.44046749	    -10.03881953	     -0.95680612	     75.64331541	      1.32022491	     15.75209812	      0.61271311	      0.00000000	      0.00000000	    -52.40798539	      0.29476461	      2.47470301	     89.37937690	    -13.86365212	     35.23729274	     39.59260057	     33.00959724	      0.00000000	      0.00000000	     88.57756161	    -13.40484567	     61.92245699	     24.44796256	     34.18670217	      0.00000000	      0.00000000
      0.02000000	    -18.47199380	     -1.33700472	     -0.53921704	      0.07403027	      1.09231544	     -0.25923812	      0.00000000	      0.50000000	      0.00000000	      0.25000000	     80.10219517	     -2.54300477	      0.28649169	     80.63924791	      1.40742038	     12.75929783	     -9.44483478	      0.00000000	      0.00000000	     53.38574558	    -10.03348784	     -0.89753925	     75.62133651	      1.31984131	     15.75198607	      0.52969202	      0.00000000	      0.00000000	    -52.47113079	      0.38369973	      2.37770181	     89.41020837	    -13.62269107	     35.22314744	     39.00954388	     33.98009207	      0.00000000	      0.00000000	     88.35254372	    -13.26974662	     59.36735091	     24.47745850	     35.02475340	      0.00000000	      0.00000000
      0.02500000	    -18.49402527	     -1.34122322	     -0.53049025	      0.07402556	      1.09228741	     -0.25922348	      0.00000000	      0.50000000	      0.00000000	      0.25000000	     80.14450395	     -2.55251880	      0.30296168	     80.69279928	      1.40835503	     12.81844192	     -9.42005082	      0.00000000	      0.00000000	     53.43882608	    -10.04340266	     -0.88733247	     75.67070094	      1.32070288	     15.73555675	      0.55946621	      0.00000000	      0.00000000	    -52.44302332	      0.40489765	      2.49359025	     89.39634268	    -13.81382002	     35.28450106	     39.20022981	     34.26578090	      0.00000000	      0.00000000	     88.39724187	    -13.35578714	     60.25359868	     24.47860006	     35.49672630	      0.00000000	      0.00000000
      0.03000000	    -18.44708623	     -1.45512633	     -0.51515859	      0.07409527	      1.09238603	     -0.25925233	      0.00000000	      0.50000000	      0.00000000	      0.25000000	     80.04270747	     -2.53892125	      0.16628442	     80.63519161	      1.40734959	     12.84152431	     -9.41058864	      0.00000000	      0.00000000	     53.42823324	    -10.13837515	     -0.78569704	     75.72716300	      1.32168833	     15.87274459	      0.83482465	      0.00000000	      0.00000000	    -52.52816278	      0.48644198	      2.42763785	     89.40767695	    -13.64311806	     34.97773414	     39.01088808	     34.70920043	      0.00000000	      0.00000000	     88.24872746	    -13.47224508	     59.06512831	     24.87845897	     35.92779776	      0.00000000	      0.00000000
